<?xml version="1.0" encoding="utf-8"?>
<!-- Generator: Adobe Illustrator 27.7.0, SVG Export Plug-In . SVG Version: 6.00 Build 0)  -->
<svg version="1.1" id="Capa_1" xmlns="http://www.w3.org/2000/svg" xmlns:xlink="http://www.w3.org/1999/xlink" x="0px" y="0px"
	 viewBox="0 0 120 100" style="enable-background:new 0 0 120 100;" xml:space="preserve">
<style type="text/css">
	.st0{fill:#010202;}
</style>
<path class="st0" d="M60,80c-0.3,0-0.6,0-0.9,0l6.1-16.8h8.4c1.5,0,3.1-1.2,3.6-2.5l6.7-18.3c1.1-3-0.6-5.4-3.8-5.4H68.4l-9.8,27
	l0,0l-5.6,15.3C39.8,76,30,64.2,30,50c0-13.8,9.2-25.3,21.9-28.9l-5.8,15.8l0,0l-9.6,26.3H43l8.1-22.3h4.8l-8.1,22.3h6.4l7.6-20.8
	c1.1-3-0.6-5.4-3.8-5.4h-5.3L58.7,20c0.4,0,0.9,0,1.3,0c16.6,0,30,13.4,30,30S76.6,80,60,80z M78.2,40.8h-4.8l-6.7,18.4h4.8
	L78.2,40.8z"/>
</svg>
